<svg width="16" height="18" viewBox="0 0 16 18" fill="none" xmlns="http://www.w3.org/2000/svg">
<path fill-rule="evenodd" clip-rule="evenodd" d="M4.5 8.00061C4.5 6.06707 6.06681 4.5 7.99939 4.5C9.93306 4.5 11.5 6.06694 11.5 8.00061C11.5 9.93319 9.93293 11.5 7.99939 11.5C6.06694 11.5 4.5 9.93306 4.5 8.00061ZM7.99939 5.5C6.61936 5.5 5.5 6.61909 5.5 8.00061C5.5 9.38077 6.61923 10.5 7.99939 10.5C9.38091 10.5 10.5 9.38064 10.5 8.00061C10.5 6.61923 9.38077 5.5 7.99939 5.5Z" fill="white"/>
<path fill-rule="evenodd" clip-rule="evenodd" d="M7.99954 1.5C4.39252 1.5 1.5 4.31717 1.5 7.75434C1.5 9.99191 2.5128 12.1947 3.87157 13.8462C4.54867 14.6691 5.30009 15.3405 6.03178 15.8026C6.77041 16.2692 7.45256 16.5 7.99954 16.5C8.54679 16.5 9.22913 16.2691 9.96787 15.8026C10.6997 15.3405 11.4512 14.6691 12.1283 13.8461C13.4872 12.1947 14.5 9.99191 14.5 7.75434C14.5 4.31725 11.6067 1.5 7.99954 1.5ZM0.5 7.75434C0.5 3.73166 3.87406 0.5 7.99954 0.5C12.1249 0.5 15.5 3.73157 15.5 7.75434C15.5 10.2812 14.3654 12.7013 12.9005 14.4815C12.1658 15.3745 11.3363 16.1212 10.5018 16.6481C9.67432 17.1707 8.80517 17.5 7.99954 17.5C7.19412 17.5 6.32512 17.1707 5.49776 16.6481C4.66345 16.1211 3.83404 15.3744 3.09936 14.4815C1.63456 12.7012 0.5 10.2812 0.5 7.75434Z" fill="white"/>
</svg>
