<svg width="18" height="18" viewBox="0 0 18 18" fill="none" xmlns="http://www.w3.org/2000/svg">
<path fill-rule="evenodd" clip-rule="evenodd" d="M13.2368 6.19548C13.4135 5.98341 13.7288 5.95476 13.9409 6.1315C14.153 6.30827 14.1817 6.62355 14.005 6.8357L13.6208 6.51564C14.005 6.8357 14.005 6.83561 14.005 6.8357L14.004 6.83683L14.0021 6.83912L13.9954 6.84712L13.9706 6.87629C13.9492 6.90139 13.918 6.93756 13.878 6.98321C13.798 7.07448 13.6823 7.20388 13.5375 7.35872C13.2486 7.66777 12.8412 8.08135 12.3688 8.49648C11.8982 8.91005 11.3524 9.33474 10.7867 9.65848C10.229 9.97765 9.60497 10.2262 8.98924 10.2262C8.374 10.2262 7.74844 9.97783 7.18852 9.65903C6.62042 9.33557 6.07109 8.91118 5.59688 8.4978C5.12089 8.08286 4.70974 7.66946 4.41808 7.36053C4.27195 7.20574 4.15507 7.0764 4.07425 6.98518C4.03382 6.93956 4.00236 6.90342 3.98072 6.87834L3.95572 6.8492L3.94893 6.84121L3.947 6.83893L3.94619 6.83798C3.94612 6.83789 3.94605 6.83781 4.32842 6.51564L3.94619 6.83798C3.76826 6.6268 3.79507 6.3112 4.00625 6.13327C4.21739 5.95537 4.53275 5.98228 4.7107 6.19336C4.71067 6.19333 4.71073 6.1934 4.7107 6.19336M13.2368 6.19548L13.2356 6.19681L13.2308 6.20257L13.21 6.22709C13.1913 6.24902 13.163 6.28183 13.1261 6.32397C13.0522 6.40828 12.9436 6.5297 12.807 6.67584C12.5332 6.96877 12.1496 7.35782 11.7087 7.74532C11.266 8.13439 10.7762 8.51233 10.29 8.79056C9.79584 9.07336 9.35178 9.22617 8.98924 9.22617C8.62661 9.22617 8.18064 9.07318 7.68331 8.79001C7.19415 8.5115 6.70051 8.13325 6.25398 7.744C5.80924 7.35631 5.42188 6.96708 5.14522 6.67404C5.00719 6.52783 4.89745 6.40635 4.8227 6.322C4.78534 6.27983 4.75677 6.247 4.73783 6.22505L4.71676 6.20049L4.71184 6.19472L4.7107 6.19336" fill="white"/>
<path fill-rule="evenodd" clip-rule="evenodd" d="M3.12531 3.39942C2.03988 4.43841 1.54346 6.15635 1.54346 8.97379C1.54346 11.7908 2.03987 13.5088 3.12533 14.5479C4.21724 15.5932 6.02778 16.0711 8.97996 16.0711C11.9321 16.0711 13.7427 15.5932 14.8346 14.5479C15.9201 13.5088 16.4165 11.7908 16.4165 8.97379C16.4165 6.15635 15.92 4.43841 14.8346 3.39942C13.7427 2.35423 11.9322 1.87646 8.97996 1.87646C6.02773 1.87646 4.21721 2.35423 3.12531 3.39942ZM2.43382 2.67703C3.82209 1.34816 5.97981 0.876465 8.97996 0.876465C11.9801 0.876465 14.1378 1.34816 15.5261 2.67703C16.9208 4.01209 17.4165 6.09282 17.4165 8.97379C17.4165 11.8544 16.9208 13.9351 15.5261 15.2702C14.1379 16.5992 11.9802 17.0711 8.97996 17.0711C5.97977 17.0711 3.82206 16.5992 2.43381 15.2702C1.0391 13.9351 0.543457 11.8544 0.543457 8.97379C0.543457 6.09282 1.03909 4.01209 2.43382 2.67703Z" fill="white"/>
</svg>
