<svg width="59" height="50" viewBox="0 0 59 50" fill="none" xmlns="http://www.w3.org/2000/svg">
<path d="M1.30204 7.87908C-0.19491 23.8788 8.25856 21.9178 11.0924 26.8658C10.7454 19.3491 6.51019 11.2191 6.44416 11.0934C6.80088 11.5128 7.15478 11.9337 7.50586 12.3561C11.0449 16.6162 12.9089 22.0211 12.6591 27.5277C12.3226 34.9051 15.8563 42.2475 22.5678 46.5347C32.7025 53.0098 46.1502 50.1501 52.6757 40.1253C55.3557 36.0246 56.5345 31.142 56.0161 26.2884C55.2922 27.0317 54.4883 27.6947 53.6186 28.2657C53.678 31.9468 52.6458 35.5647 50.649 38.6738C44.9723 47.5314 33.1003 50.1778 24.1175 44.5846C18.0289 40.7919 14.8295 34.1858 15.1607 27.5589V27.5501C15.2191 26.39 15.3856 25.2377 15.6583 24.1078C15.7164 23.8616 15.7803 23.6175 15.85 23.3729C23.612 6.84431 0.315868 0.0901626 0.00369625 0.000976562C0.00250401 0.00141641 0.00119224 0.00141641 0 0.000976562C0 0.000976562 1.81282 2.41891 1.30204 7.87908Z" fill="#3AAA35"/>
<path d="M24.984 43.2284C27.7974 44.9872 31.0599 45.9183 34.3898 45.9128C40.2323 45.906 45.9449 43.0318 49.2917 37.7922C50.9548 35.1982 51.8899 32.2145 52.0014 29.1464C47.4894 32.2799 40.3279 31.1804 31.4218 24.999C25.3236 20.7671 20.9262 20.8265 18.0723 21.9176C14.8809 29.5923 17.6329 38.6502 24.984 43.2284Z" fill="#F45604"/>
<path d="M41.1274 23.8787C41.1274 23.8787 44.9348 20.1366 42.412 15.2934C39.8893 10.4502 36.813 12.9986 39.5888 16.4095C42.8832 20.4579 41.1274 23.8787 41.1274 23.8787Z" fill="#F45604"/>
<path d="M38.4922 26.9848C38.7035 27.1305 38.9214 27.2696 39.1461 27.402C39.5603 27.6484 39.9881 27.8716 40.4275 28.0707C41.5222 28.5683 42.6825 28.9108 43.8741 29.0882C49.3606 29.9013 54.9597 27.0943 57.3894 21.8636C59.3597 17.627 60.0928 11.3866 56.22 9.31396C55.1572 8.74494 54.0142 8.82318 52.8563 9.40941C50.1788 10.7655 47.42 14.8305 45.3716 19.8875C43.3633 24.8469 40.6642 26.53 38.4922 26.9848Z" fill="#F45604"/>
<path d="M44.5179 16.8598C44.5179 16.8598 49.5359 9.67064 44.3034 3.8506C39.071 -1.96944 34.6298 3.30766 39.7022 7.05974C45.719 11.5102 44.5179 16.8598 44.5179 16.8598Z" fill="#F45604"/>
<path d="M35.2616 24.2213C36.6947 23.9916 37.6679 22.6582 37.4353 21.2431C37.2027 19.828 35.8523 18.8671 34.4192 19.0968C32.986 19.3265 32.0128 20.6599 32.2454 22.0749C32.4781 23.49 33.8284 24.451 35.2616 24.2213Z" fill="#F45604"/>
<path d="M35.9787 14.0861C36.3445 13.2143 35.9252 12.2148 35.0422 11.8537C34.1593 11.4926 33.1471 11.9066 32.7813 12.7784C32.4156 13.6502 32.8349 14.6497 33.7178 15.0108C34.6008 15.3719 35.613 14.9579 35.9787 14.0861Z" fill="#F45604"/>
<path d="M28.3945 21.6194C29.3406 21.4968 30.0069 20.64 29.8826 19.7058C29.7584 18.7716 28.8907 18.1137 27.9446 18.2364C26.9984 18.359 26.3322 19.2158 26.4564 20.15C26.5806 21.0842 27.4483 21.7421 28.3945 21.6194Z" fill="#F45604"/>
<path d="M40.6635 43.2132C41.4441 43.2132 42.077 42.5884 42.077 41.8176C42.077 41.0467 41.4441 40.4219 40.6635 40.4219C39.8828 40.4219 39.25 41.0467 39.25 41.8176C39.25 42.5884 39.8828 43.2132 40.6635 43.2132Z" fill="#DB1B4A"/>
<path d="M36.1112 42.3696C36.6558 42.3696 37.0973 41.9336 37.0973 41.3959C37.0973 40.8581 36.6558 40.4221 36.1112 40.4221C35.5665 40.4221 35.125 40.8581 35.125 41.3959C35.125 41.9336 35.5665 42.3696 36.1112 42.3696Z" fill="#DB1B4A"/>
<path d="M37.2885 38.3252C37.7405 38.2198 38.0204 37.7726 37.9138 37.3263C37.8071 36.88 37.3542 36.6036 36.9022 36.7089C36.4502 36.8143 36.1702 37.2615 36.2769 37.7078C36.3836 38.1541 36.8365 38.4305 37.2885 38.3252Z" fill="#DB1B4A"/>
<path d="M19.0515 18.305C19.1207 18.1423 19.1878 17.978 19.2502 17.8127C20.4761 14.5874 22.8906 11.9316 25.9848 10.3409C26.2912 10.1833 26.5991 10.0269 26.9087 9.87146C26.8389 9.92778 22.3835 13.5745 20.315 17.8106C26.8759 19.8107 29.732 12.462 31.0313 8.2489C31.7803 5.81845 33.3745 5.0575 33.3745 5.0575C33.3407 5.05332 32.9931 5.02881 32.4237 5.02881C28.9259 5.02881 17.0966 5.96031 19.0515 18.305Z" fill="#3AAA35"/>
<path d="M24.984 43.2287C27.7974 44.9875 31.0599 45.9187 34.3898 45.9132C36.3547 44.3485 32.5532 42.2686 26.0916 38.4847C17.3328 33.3546 18.0723 21.918 18.0723 21.918C14.8809 29.5927 17.6329 38.6505 24.984 43.2287Z" fill="#DB1B4A"/>
<path style="mix-blend-mode:overlay" d="M0.00366211 0.000976562C0.248223 0.105288 13.1144 5.64734 14.952 16.3997C15.5684 20.0063 15.682 22.3846 15.6593 24.1078C15.7174 23.8616 15.7813 23.6176 15.851 23.3729C23.612 6.84431 0.315834 0.0901626 0.00366211 0.000976562Z" fill="url(#paint0_linear_1_223)"/>
<path style="mix-blend-mode:overlay" d="M19.0515 18.305C19.4514 6.54028 33.1489 5.08097 33.3713 5.0575C33.3375 5.05332 32.99 5.02881 32.4205 5.02881C28.9259 5.02881 17.0966 5.96031 19.0515 18.305Z" fill="url(#paint1_linear_1_223)"/>
<path d="M38.4922 26.9848C38.7035 27.1305 38.9214 27.2696 39.1461 27.402C39.5603 27.6484 39.9881 27.8716 40.4275 28.0707C41.5222 28.5683 42.6825 28.9108 43.8741 29.0882C49.3606 29.9013 54.9597 27.0943 57.3894 21.8636C59.3597 17.627 60.0928 11.3866 56.22 9.31396C55.1572 8.74494 54.0142 8.82318 52.8563 9.40941C56.6299 8.66149 56.5654 12.0224 56.1312 14.8059C55.3981 19.5589 50.2332 32.3537 38.4922 26.9848Z" fill="#DB1B4A"/>
<defs>
<linearGradient id="paint0_linear_1_223" x1="17.4325" y1="12.0541" x2="0.00366211" y2="12.0541" gradientUnits="userSpaceOnUse">
<stop stop-color="white"/>
<stop offset="0.87" stop-color="#DADADA"/>
</linearGradient>
<linearGradient id="paint1_linear_1_223" x1="33.3713" y1="11.6672" x2="18.835" y2="11.6672" gradientUnits="userSpaceOnUse">
<stop stop-color="white"/>
<stop offset="0.87" stop-color="#DADADA"/>
</linearGradient>
</defs>
</svg>
