<svg width="18" height="18" viewBox="0 0 18 18" fill="none" xmlns="http://www.w3.org/2000/svg">
<path fill-rule="evenodd" clip-rule="evenodd" d="M10.6925 0.944443C10.7232 0.670013 10.9706 0.472438 11.245 0.503146C14.5326 0.871019 17.1256 3.48359 17.4943 6.78942C17.525 7.06386 17.3273 7.31115 17.0529 7.34177C16.7784 7.37238 16.5311 7.17472 16.5005 6.90028C16.183 4.05378 13.952 1.81229 11.1338 1.49694C10.8593 1.46624 10.6618 1.21887 10.6925 0.944443ZM1.85732 3.30005C1.85686 3.30076 1.85664 3.30109 1.85668 3.30102C1.84821 3.31606 1.83896 3.33065 1.82898 3.34474C1.6218 3.63698 1.28963 4.34532 1.6827 5.68477C2.08344 7.05042 3.23968 9.07009 6.05709 11.9093C8.87523 14.7488 10.8793 15.9132 12.2329 16.3164C13.5592 16.7114 14.259 16.3774 14.5474 16.1695C14.5619 16.159 14.5769 16.1494 14.5924 16.1406C14.5922 16.1407 14.5929 16.1403 14.5943 16.1393C14.6139 16.1264 14.7827 16.0152 15.0106 15.8199C15.2504 15.6145 15.5332 15.3349 15.7607 15.0086C15.9895 14.6805 16.1437 14.3321 16.1691 13.9828C16.1933 13.6492 16.104 13.269 15.7622 12.8483C14.7354 11.5925 14.072 11.1421 13.6261 11.0086C13.227 10.8893 12.9332 11.0003 12.4913 11.2158C12.462 11.2301 12.4319 11.245 12.4009 11.2603C11.9849 11.4659 11.4226 11.7437 10.6969 11.6522C9.92458 11.5549 9.06683 11.0612 7.97785 9.96422L7.97778 9.96414C6.88846 8.86634 6.40015 8.00321 6.30392 7.22834C6.21353 6.50052 6.48787 5.93647 6.69201 5.51676C6.70714 5.48565 6.72188 5.45534 6.73606 5.42581C6.94979 4.98078 7.06183 4.68123 6.94199 4.27475C6.80879 3.82295 6.36047 3.15393 5.11457 2.11994C4.69767 1.77593 4.32272 1.6873 3.99518 1.71147C3.65131 1.73685 3.30709 1.89118 2.98158 2.12166C2.65799 2.35077 2.38042 2.63575 2.17633 2.8776C1.97828 3.1123 1.86667 3.28553 1.85732 3.30005ZM3.92159 0.714182C4.52505 0.669652 5.15083 0.853131 5.75169 1.34918L5.75267 1.34999C7.03312 2.41257 7.68005 3.24191 7.90118 3.99197C8.13568 4.7874 7.86106 5.39321 7.6375 5.85872C7.63 5.87434 7.62257 5.88979 7.61521 5.90508C7.39534 6.36233 7.24331 6.67848 7.2963 7.10509C7.35191 7.55287 7.6552 8.21933 8.68762 9.25978C9.72077 10.3005 10.381 10.6045 10.822 10.6601C11.2421 10.7131 11.5532 10.5611 12.0085 10.3388C12.0231 10.3316 12.0379 10.3244 12.0529 10.3171C12.5144 10.0919 13.119 9.81317 13.9126 10.0506C14.6593 10.2739 15.4829 10.9267 16.5369 12.2159L16.5378 12.217C17.0296 12.8221 17.2104 13.4506 17.1665 14.0553C17.1237 14.6444 16.8714 15.1641 16.581 15.5805C16.0449 16.3495 15.3025 16.8746 15.1172 16.9914C14.5625 17.3847 13.5429 17.75 11.9474 17.2748C10.365 16.8034 8.22012 15.5083 5.34732 12.6137L5.34729 12.6137C2.47465 9.71885 1.19041 7.55862 0.723157 5.96635C0.252385 4.36208 0.614048 3.33838 1.00284 2.7811C1.11698 2.59732 1.63853 1.8473 2.40372 1.30552C2.81716 1.01279 3.33433 0.757516 3.92159 0.714182ZM10.6987 3.84882C10.7517 3.57782 11.0144 3.40113 11.2854 3.45417C12.9484 3.77966 14.2446 5.08916 14.5674 6.75906C14.6198 7.03018 14.4425 7.29246 14.1714 7.34487C13.9003 7.39729 13.638 7.22 13.5856 6.94887C13.3393 5.67476 12.3521 4.68191 11.0933 4.43555C10.8223 4.38251 10.6456 4.11982 10.6987 3.84882Z" fill="white"/>
</svg>
