<svg width="18" height="18" viewBox="0 0 18 18" fill="none" xmlns="http://www.w3.org/2000/svg">
<path fill-rule="evenodd" clip-rule="evenodd" d="M0.51351 9C0.51351 4.30687 4.31652 0.5 9.00669 0.5C13.6969 0.5 17.4999 4.30687 17.4999 9C17.4999 13.6931 13.6969 17.5 9.00669 17.5C7.66939 17.5 6.3637 17.1971 5.15654 16.5914L1.55086 17.4853C1.5115 17.4951 1.4711 17.5 1.43054 17.5H1.36185C1.10718 17.5 0.934643 17.3977 0.805502 17.3116C0.750591 17.2749 0.703478 17.2278 0.666882 17.1728C0.54808 16.9945 0.44179 16.699 0.535166 16.4021L1.5173 12.9945C0.846277 11.776 0.51351 10.4013 0.51351 9ZM9.00669 1.5C4.86961 1.5 1.51351 4.85835 1.51351 9C1.51351 10.3082 1.84019 11.5763 2.48716 12.6771C2.55669 12.7954 2.57454 12.9371 2.53654 13.0689L1.56136 16.4524L5.0983 15.5756C5.21777 15.5459 5.34396 15.5614 5.45272 15.6191C6.56119 16.2064 7.76654 16.5 9.00669 16.5C13.1438 16.5 16.4999 13.1417 16.4999 9C16.4999 4.85835 13.1438 1.5 9.00669 1.5ZM6.47878 5.7087H6.12301C6.0962 5.7087 6.06903 5.71191 6.04124 5.72202C6.01502 5.73156 5.97297 5.75242 5.91985 5.80558C5.73514 5.99045 5.33634 6.38959 5.33634 7.15652C5.33634 7.52894 5.4794 7.93301 5.65953 8.28555C5.83554 8.63006 6.02396 8.88149 6.0705 8.9436C6.07884 8.95473 6.0921 8.97336 6.11007 8.99862C6.36746 9.36043 7.59796 11.0901 9.37567 11.844L9.37756 11.8448C9.72449 11.9936 10.0044 12.0824 10.2661 12.1654C10.3485 12.1916 10.429 12.2171 10.5092 12.2438C10.8855 12.3493 11.2441 12.3286 11.5747 12.2961C11.6926 12.2705 11.9257 12.1811 12.156 12.037C12.4129 11.8763 12.5396 11.7264 12.5671 11.6494L12.5712 11.638C12.6414 11.4552 12.6702 11.2944 12.6729 11.1915C12.673 11.187 12.673 11.1828 12.6731 11.1788C12.6606 11.173 12.6453 11.166 12.6258 11.1571L12.6213 11.155C12.5799 11.1361 12.5259 11.1115 12.4667 11.0819C12.2737 10.9853 11.4555 10.5903 11.1836 10.4681C11.0943 10.5852 10.9801 10.7192 10.8844 10.8305C10.8458 10.8754 10.8098 10.917 10.777 10.955C10.6842 11.0623 10.617 11.14 10.5884 11.1781C10.56 11.216 10.5263 11.2497 10.4885 11.2781C10.3999 11.3446 10.2528 11.4447 10.0505 11.47C9.84402 11.4959 9.66206 11.4349 9.51275 11.3602C9.5013 11.3545 9.49007 11.3483 9.4791 11.3417C9.47936 11.3419 9.47961 11.342 9.4791 11.3417C9.47672 11.3404 9.46478 11.3341 9.43637 11.3207C9.41298 11.3097 9.3871 11.2979 9.35487 11.2833C9.34194 11.2774 9.32799 11.271 9.31277 11.2641C9.21068 11.2175 9.07639 11.1551 8.91999 11.0721C8.60686 10.9059 8.21056 10.6601 7.7788 10.2849C7.0934 9.71195 6.63799 8.99475 6.50898 8.7365C6.40608 8.53052 6.37697 8.30221 6.46591 8.07966C6.53197 7.91438 6.65253 7.79573 6.69796 7.75102C6.70135 7.74768 6.70432 7.74475 6.70682 7.74225C6.7301 7.71895 6.75562 7.69801 6.78301 7.67974C6.78191 7.6807 6.78197 7.68043 6.78301 7.67974C6.78692 7.67632 6.80451 7.6607 6.83715 7.62259C6.87672 7.57639 6.91883 7.52052 6.97318 7.44799C7.04069 7.3579 7.06384 7.31723 7.11153 7.22248C7.1103 7.21876 7.10895 7.2147 7.10744 7.21017C7.10795 7.21169 7.10773 7.21112 7.10647 7.20785C7.10424 7.20207 7.09875 7.18784 7.08826 7.16179C7.07418 7.12679 7.05514 7.08045 7.03206 7.02485C6.98598 6.91384 6.92566 6.77046 6.86054 6.61621C6.82249 6.52607 6.78277 6.43216 6.74342 6.33913C6.64886 6.11557 6.55647 5.89713 6.49467 5.74869C6.49173 5.74161 6.48894 5.73447 6.48632 5.72726C6.48392 5.72065 6.48104 5.71447 6.47878 5.7087ZM7.42193 5.37411C7.33099 5.12891 7.19056 4.91031 6.95413 4.79199C6.74494 4.68731 6.51162 4.70806 6.50464 4.70868L6.1222 4.7087C5.88382 4.7087 5.53593 4.77501 5.21245 5.09877C4.97986 5.33155 4.33634 5.97647 4.33634 7.15652C4.33634 7.75801 4.55818 8.32786 4.76902 8.74053C4.98394 9.16117 5.21252 9.46623 5.27029 9.54331C5.26445 9.53552 5.4149 9.75107 5.57841 9.96331C5.7603 10.1994 6.01484 10.5099 6.33341 10.8447C6.9657 11.5091 7.87185 12.2923 8.9843 12.7643C9.38079 12.9343 9.72323 13.0427 9.99052 13.1274C10.0681 13.152 10.1394 13.1745 10.2038 13.196C10.2107 13.1983 10.2176 13.2005 10.2246 13.2025C10.809 13.3696 11.3426 13.3244 11.6977 13.2888C11.711 13.2875 11.7243 13.2856 11.7374 13.2832C12.0082 13.234 12.3718 13.0815 12.6863 12.8848C12.984 12.6986 13.3589 12.3984 13.5067 11.9917C13.609 11.7239 13.6665 11.452 13.6725 11.2172C13.6755 11.1009 13.6666 10.9708 13.6293 10.8468C13.6066 10.7713 13.5601 10.6556 13.4648 10.5555C13.3716 10.4213 13.2472 10.3501 13.1823 10.3154C13.135 10.2902 13.084 10.267 13.0451 10.2492L13.0408 10.2473C12.9971 10.2273 12.9571 10.2091 12.9143 10.1876C12.7118 10.0863 11.6835 9.58869 11.4862 9.50973L11.4806 9.50749C11.3986 9.4746 11.2136 9.40037 11.003 9.42517C10.7388 9.45628 10.5545 9.61794 10.4325 9.80107C10.3836 9.87444 10.2673 10.0144 10.1264 10.1782C10.1007 10.2082 10.0736 10.2394 10.0463 10.271C9.99783 10.327 9.94863 10.3838 9.90481 10.4354C9.84717 10.406 9.78308 10.3767 9.7123 10.3443C9.41172 10.2067 8.99058 10.0139 8.43137 9.52718L8.42337 9.52037C7.95609 9.13064 7.61697 8.64993 7.46961 8.40671C7.51934 8.36058 7.56188 8.31369 7.59668 8.27306C7.65953 8.19968 7.71997 8.11901 7.76912 8.0534L7.77343 8.04766C7.90445 7.87281 7.95491 7.77198 8.02911 7.62345C8.19169 7.29802 8.09934 7.02278 8.05976 6.90481C8.05852 6.90111 8.05733 6.89757 8.0562 6.89418C8.03071 6.81763 7.90502 6.51911 7.78181 6.22727C7.74287 6.13503 7.70257 6.03976 7.6629 5.94597C7.57103 5.72876 7.4825 5.51947 7.42193 5.37411Z" fill="white"/>
</svg>
